<svg width="22.000000" height="21.000000" viewBox="0 0 22 21" fill="none" xmlns="http://www.w3.org/2000/svg" xmlns:xlink="http://www.w3.org/1999/xlink">
	<desc>
			Created with Pixso.
	</desc>
	<defs/>
	<path id="Path 505" d="M18.26 1.37C19.08 1.37 19.76 2 19.81 2.82L20.58 15.08C20.64 16.07 20.29 17.05 19.6 17.78C18.92 18.51 17.97 18.92 16.97 18.92L4.98 18.92C3.98 18.92 3.03 18.51 2.35 17.78C1.67 17.05 1.32 16.07 1.38 15.08L2.14 2.82C2.19 2 2.87 1.37 3.69 1.37L6.33 1.37L15.62 1.37L18.26 1.37ZM18.26 -0.01L15.62 -0.01L6.33 -0.01L3.69 -0.01C2.15 -0.01 0.87 1.2 0.77 2.74L0 14.99C-0.08 16.36 0.41 17.72 1.35 18.72C2.29 19.72 3.61 20.29 4.98 20.29L16.97 20.29C18.34 20.29 19.66 19.72 20.61 18.72C21.54 17.72 22.03 16.36 21.95 14.99L21.18 2.74C21.08 1.2 19.8 -0.01 18.26 -0.01Z" fill="#000000" fill-opacity="1.000000" fill-rule="nonzero"/>
	<path id="Path 506" d="M15.21 4.45C15.83 4.45 16.32 4.95 16.32 5.57C16.32 6.18 15.83 6.68 15.21 6.68L6.74 6.68C6.13 6.68 5.63 6.18 5.63 5.57C5.63 4.95 6.13 4.45 6.74 4.45L15.21 4.45ZM15.21 3.08L6.74 3.08C5.37 3.08 4.25 4.19 4.25 5.57C4.25 6.94 5.37 8.05 6.74 8.05L15.21 8.05C16.58 8.05 17.7 6.94 17.7 5.57C17.7 4.19 16.58 3.08 15.21 3.08Z" fill="#000000" fill-opacity="1.000000" fill-rule="nonzero"/>
</svg>
