<svg xmlns="http://www.w3.org/2000/svg" width="195.147" height="41.187"><g data-name="bogs logo"><g data-name="Group 870"><path d="M185.73 0c-5.203.004-9.416 4.248-9.418 9.485.002 5.24 4.215 9.484 9.418 9.488 5.201-.004 9.414-4.246 9.417-9.488-.003-5.239-4.216-9.48-9.417-9.485Zm0 13.596c-2.253-.004-4.074-1.843-4.083-4.11.009-2.269 1.83-4.104 4.083-4.108 2.252.004 4.075 1.84 4.08 4.107-.005 2.268-1.828 4.107-4.08 4.11Z" fill="#fb6f13" fill-rule="evenodd" data-name="Path 479"/><g data-name="Group 869"><path d="M63.338 6.833c-7.634 0-21.786.54-21.786 17.175 0 16.642 14.152 17.179 21.786 17.179 7.635 0 21.787-.537 21.787-17.18 0-16.633-14.152-17.174-21.787-17.174m0 26.262c-5.135 0-8.396-2.566-8.396-9.087 0-6.519 3.26-9.08 8.396-9.08 5.134 0 8.395 2.561 8.395 9.08 0 6.52-3.26 9.087-8.395 9.087" fill-rule="evenodd" data-name="Path 480"/><path d="m163.382 20.321-15.047-2.248c-1.25-.18-1.653-.762-1.653-1.662 0-1.35 1.295-2.292 5.046-2.292 1.386 0 2.81.18 3.931.674 1.159.445 1.915 1.257 1.915 2.563h14.645c-.446-6.79-6.292-10.523-20.49-10.523-10.357 0-18.44 2.247-18.44 10.566 0 4.499 2.544 8.094 8.708 9.04l14.374 2.157c1.7.272 2.279 1.216 2.279 2.16 0 1.53-1.076 2.608-5.001 2.608-1.962 0-3.35-.225-4.286-.676-.891-.494-1.295-1.21-1.34-2.292h-15.179c.042 9.444 10.627 10.79 20.313 10.79 14.154 0 20.495-3.687 20.495-11.508 0-5.444-3.931-8.413-10.27-9.357" fill-rule="evenodd" data-name="Path 481"/><path d="M111.668 21.714v7.16h4.964c-1.305 2.844-3.897 4.085-7.399 4.085-5.106 0-8.35-2.554-8.35-9.04 0-6.483 3.244-9.034 8.35-9.034 2.75 0 4.928.78 6.373 2.485.282.458.522.972.657 1.6h14.193c-.698-5.862-4.26-9.501-11.259-11.13-3.516-.918-7.174-1.007-9.964-1.007l-.308.001-.118-.001c-.062 0-.126.003-.191.003-7.708.037-21.054.962-21.054 17.082 0 10.892 6.096 14.833 12.43 16.266 2.95.772 6.063.996 8.862.996 2.714 0 4.988-.158 6.941-.51 7.171-.92 15.112-4.317 15.112-16.752 0-.78-.056-1.495-.12-2.204h-19.12Z" fill-rule="evenodd" data-name="Path 482"/><path d="M34.29 22.301v-.089c2.41-.947 3.791-3.417 3.791-6.252 0-5.125-2.899-8.004-9.416-8.004H0v32.106h27.28c9.33 0 12.455-4.135 12.455-10.43 0-2.382-1.339-6.253-5.446-7.33m-21.966-6.523h9.508c2.547 0 3.127.855 3.127 2.025 0 1.259-.58 2.114-3.127 2.114h-9.508v-4.14Zm10.76 16.46h-10.76v-5.037h10.76c2.499 0 3.26 1.125 3.26 2.518 0 1.443-.761 2.52-3.26 2.52" fill-rule="evenodd" data-name="Path 483"/></g></g></g></svg>