<svg width="196.000000" height="42.000000" viewBox="0 0 196 42" fill="none" xmlns="http://www.w3.org/2000/svg" xmlns:xlink="http://www.w3.org/1999/xlink">
	<desc>
			Created with Pixso.
	</desc>
	<defs/>
	<path id="Path 479" d="M185.72 -0.1C180.52 -0.09 176.31 4.15 176.31 9.39C176.31 14.63 180.52 18.87 185.72 18.87C190.93 18.87 195.14 14.63 195.14 9.39C195.14 4.15 190.93 -0.09 185.72 -0.1ZM185.72 13.5C183.47 13.49 181.65 11.65 181.64 9.39C181.65 7.12 183.47 5.28 185.72 5.28C187.98 5.28 189.8 7.12 189.81 9.39C189.8 11.65 187.98 13.49 185.72 13.5Z" fill="#FB6F13" fill-opacity="1.000000" fill-rule="nonzero"/>
	<path id="Path 480" d="M63.33 6.73C55.7 6.73 41.55 7.28 41.55 23.91C41.55 40.55 55.7 41.09 63.33 41.09C70.97 41.09 85.12 40.55 85.12 23.91C85.12 7.28 70.97 6.73 63.33 6.73ZM63.33 33C58.2 33 54.94 30.43 54.94 23.91C54.94 17.39 58.2 14.83 63.33 14.83C68.47 14.83 71.73 17.39 71.73 23.91C71.73 30.43 68.47 33 63.33 33Z" fill="#000000" fill-opacity="1.000000" fill-rule="nonzero"/>
	<path id="Path 481" d="M163.38 20.22L148.33 17.97C147.08 17.79 146.68 17.21 146.68 16.31C146.68 14.96 147.97 14.02 151.72 14.02C153.11 14.02 154.53 14.2 155.65 14.69C156.81 15.14 157.57 15.95 157.57 17.26L172.22 17.26C171.77 10.47 165.92 6.73 151.72 6.73C141.37 6.73 133.28 8.98 133.28 17.3C133.28 21.8 135.83 25.39 141.99 26.34L156.37 28.5C158.07 28.77 158.64 29.71 158.64 30.66C158.64 32.19 157.57 33.27 153.64 33.27C151.68 33.27 150.3 33.04 149.36 32.59C148.47 32.1 148.06 31.38 148.02 30.3L132.84 30.3C132.88 39.74 143.47 41.09 153.15 41.09C167.31 41.09 173.65 37.4 173.65 29.58C173.65 24.14 169.72 21.17 163.38 20.22Z" fill="#000000" fill-opacity="1.000000" fill-rule="nonzero"/>
	<path id="Path 482" d="M111.66 21.61L111.66 28.78L116.63 28.78C115.32 31.62 112.73 32.86 109.23 32.86C104.12 32.86 100.88 30.31 100.88 23.82C100.88 17.34 104.12 14.79 109.23 14.79C111.98 14.79 114.16 15.57 115.6 17.27C115.88 17.73 116.12 18.24 116.26 18.87L130.45 18.87C129.75 13.01 126.19 9.37 119.19 7.74C115.68 6.82 112.02 6.73 109.23 6.73C109.13 6.73 109.02 6.74 108.92 6.74C108.88 6.74 108.84 6.73 108.8 6.73C108.74 6.73 108.68 6.74 108.61 6.74C100.9 6.77 87.56 7.7 87.56 23.82C87.56 34.71 93.65 38.65 99.99 40.09C102.94 40.86 106.05 41.08 108.85 41.08C111.56 41.08 113.84 40.92 115.79 40.57C122.96 39.65 130.9 36.25 130.9 23.82C130.9 23.04 130.85 22.32 130.78 21.61L111.66 21.61Z" fill="#000000" fill-opacity="1.000000" fill-rule="nonzero"/>
	<path id="Path 483" d="M34.28 22.2C36.7 21.26 38.08 18.7 38.08 15.86C38.08 10.74 35.18 7.86 28.66 7.86L0 7.86L0 39.96L27.28 39.96C36.61 39.96 39.73 35.83 39.73 29.53C39.73 27.15 38.39 23.28 34.28 22.2ZM12.32 15.68L21.83 15.68C24.37 15.68 24.95 16.54 24.95 17.7C24.95 18.96 24.37 19.82 21.83 19.82L12.32 19.82L12.32 15.68ZM23.08 32.14L12.32 32.14L12.32 27.1L23.08 27.1C25.58 27.1 26.34 28.23 26.34 29.62C26.34 31.06 25.58 32.14 23.08 32.14Z" fill="#000000" fill-opacity="1.000000" fill-rule="nonzero"/>
</svg>
