<svg width="40.000000" height="40.000000" viewBox="0 0 40 40" fill="none" xmlns="http://www.w3.org/2000/svg" xmlns:xlink="http://www.w3.org/1999/xlink">
	<desc>
			Created with Pixso.
	</desc>
	<defs/>
	<mask id="mask11_20" mask-type="alpha" maskUnits="userSpaceOnUse" x="0.000000" y="0.000000" width="40.000000" height="40.000000">
		<rect id="Rectangle 2026" width="40.000000" height="40.000000" fill="#C4C4C4" fill-opacity="1.000000"/>
	</mask>
	<g mask="url(#mask11_20)">
		<path id="Path 479" d="M20 1C9.5 1 1 9.5 1 19.99C1 30.48 9.5 38.99 20 39C30.49 38.99 38.99 30.49 39 19.99C38.99 9.5 30.49 1 20 1ZM20 28.22C15.45 28.22 11.78 24.53 11.76 19.99C11.78 15.45 15.45 11.77 20 11.77C24.54 11.77 28.22 15.45 28.23 19.99C28.22 24.53 24.54 28.22 20 28.22Z" fill="#FB6F13" fill-opacity="1.000000" fill-rule="nonzero"/>
	</g>
</svg>
